<svg version="1" xmlns="http://www.w3.org/2000/svg" width="844" height="844" viewBox="0 0 633.000000 633.000000"><path d="M180.5 17.1C143.7 21 106.9 35.8 78 58.3c-9.6 7.5-25.3 23-33 32.7-32.5 40.8-48.2 93.2-42.9 144.1 4 39.5 18.5 75.3 42.9 105.9 12.4 15.5 30.5 31.9 47.5 43 8.1 5.2 28.2 15.7 34.3 17.8l3.2 1.1v17c0 9.4.3 17.1.6 17.1.8 0 98.4-61 98.4-61.5S131.4 314 130.6 314c-.3 0-.6 7.7-.6 17.1v17l-5-2.8c-14.2-7.9-33.1-24.9-44.5-40.2-6.8-9-15.9-25.7-20-36.4-10.7-28.4-12.3-61.6-4.5-91 10.6-40 38.6-75.1 75.1-94.2C153.8 71.7 176.3 66 200.5 66c25.1 0 47.5 5.6 70.4 17.5 36.5 19.1 64.5 54.2 75.1 94.2 2.4 9.1 5 25.7 5 32.5v4.8H234.9l-2.4 2.5-2.5 2.4v390.2l2.5 2.4 2.4 2.5h390.2l2.4-2.5 2.5-2.4V219.9l-2.5-2.4-2.4-2.5H401.4l-1.1-13.8c-4.3-50.4-24.6-93.9-60-128.2-17-16.5-30.6-26.2-51.8-36.6-33.1-16.2-71.5-23.1-108-19.3zM580 415v150H280V265h300v150z"/><path d="M391.2 313.3c-1.4 1.5-2.2 3.6-2.2 5.8 0 3.1.4 3.6 3.6 4.8 4.8 1.8 6.1 4.7 4.1 10.3-.8 2.3-17.3 37.4-36.7 77.8-19.4 40.4-36.8 76.7-38.6 80.6-4.3 8.9-7.1 12-12.3 13.4-4 1-4.1 1.2-4.1 5.4 0 7.8-.9 7.6 37.2 7.6 37.8 0 36.8.2 36.8-7.7 0-3.9-.2-4.1-4.5-5.7-6.6-2.6-6.5-3.3 2.7-22.8l7.1-14.8h85.5l7.1 14.6c3.9 8.1 7.4 15.7 7.7 17.1.8 3.1-1 5.1-5.7 6.3-3.7 1-3.9 1.3-3.9 4.9 0 2.6.7 4.4 2.3 5.9 2.3 2.2 2.7 2.2 39.4 2.2 41.8 0 40.3.3 40.3-7.8 0-4-.1-4.2-4.2-5.3-2.4-.6-5.5-2.5-7.3-4.3-3.5-3.7-85.5-168.9-85.5-172.2 0-2.4 2.6-5 5.5-5.6 2.8-.5 3.4-8.1.9-10.9-1.6-1.8-3.6-1.9-37.4-1.9h-35.7l-2.1 2.3zm49.3 90.7c6.9 15.1 12.5 27.7 12.5 28.2 0 .4-11.5.8-25.5.8-20.6 0-25.5-.3-25.5-1.3 0-.8 5.6-13.5 12.5-28.3 6.9-14.7 12.5-27 12.5-27.3 0-1.4 2.2 3.2 13.5 27.9z"/></svg>