<svg xmlns="http://www.w3.org/2000/svg" width="1240" height="1240"><path d="M686.439 96.888L550.5 181.775l-.259-51.001-.259-51.002-5.741.692c-22.848 2.757-56.831 10.057-81.741 17.559-33.971 10.23-57.186 19.444-88.5 35.124-54.639 27.36-98.183 58.863-142.062 102.776-43.544 43.578-74.682 86.831-102.281 142.077-31.98 64.014-50.471 131.627-55.722 203.743-1.364 18.741-.735 77.098 1.001 92.757 5.077 45.812 14.063 86.52 27.813 126 8.47 24.318 15.135 40.011 27.398 64.5 27.102 54.122 58.086 97.169 100.838 140.093 34.976 35.118 66.627 59.959 108.515 85.17 16.657 10.025 51.931 27.694 70.25 35.189l14.25 5.83v46.859c0 25.773.284 46.859.63 46.859.347 0 61.513-38.025 135.926-84.5 74.413-46.475 135.554-84.5 135.87-84.5.316 0 .574 23.614.574 52.475v52.475l2.75-.462c62.811-10.544 109.833-25.458 161.25-51.145 56.848-28.399 98.331-58.426 144.028-104.252 45.111-45.239 77.328-90.404 104.541-146.559 28.05-57.88 45.018-117.934 52.138-184.532 2.528-23.648 2.494-82.621-.061-106.5-9.3-86.892-36.511-165.902-81.966-237.989-41.532-65.867-101.723-126.207-167.903-168.318-23.823-15.159-53.518-30.967-77.527-41.272L824 115.522V63.761c0-28.469-.365-51.761-.811-51.761-.446 0-61.984 38.199-136.75 84.888M549.773 200.582l-.273 17.781-11.5 2.302c-99.187 19.856-186.813 75.657-247.758 157.774-72.171 97.244-96.989 222.311-67.746 341.404 13.398 54.566 39.643 108.426 74.386 152.657 14.379 18.306 39.639 44.627 57.618 60.04 17.285 14.817 50.159 37.659 65.25 45.338l4.25 2.163V932.02c0-26.411.269-48.02.597-48.02.329 0 61.497 38.025 135.93 84.5 74.432 46.475 135.577 84.5 135.877 84.5.3 0 .669-7.071.821-15.714l.275-15.713 4-.869c79.542-17.271 148.295-54.59 204.955-111.249 57.6-57.601 95.813-128.8 111.878-208.455 5.761-28.565 7.111-43.751 7.111-80s-1.35-51.435-7.111-80c-22.197-110.06-88.403-205.929-183.651-265.936-5.294-3.335-9.863-6.064-10.153-6.064-.291 0-.529 18.948-.529 42.107 0 38.858-.128 42.058-1.664 41.469-1.298-.499-260.212-161.862-269.935-168.233l-2.354-1.542-.274 17.781m-32.557 131.699L512 337.563v20.072l5.25 1.685c15.936 5.114 19.195 11.384 14.128 27.18-2.052 6.394-197.187 414.691-202.586 423.886-7.776 13.243-12.924 16.88-28.292 19.987l-6 1.213-.287 10.388-.287 10.388 5.253 5.319 5.253 5.319h171.136l5.216-5.281 5.216-5.282v-20.36l-4.25-1.094c-9.509-2.447-14.102-4.353-17.341-7.197-6.436-5.651-5.59-8.442 16.791-55.41l17.3-36.304 110.328-.036L719.155 732l17.271 35.25c18.5 37.761 21.574 44.915 21.574 50.211 0 6.995-6.45 11.168-20.25 13.101l-4.75.665v21.341l5.281 5.216 5.282 5.216h190.005l5.216-5.281 5.216-5.282V831.32l-6.901-1.233c-14.764-2.638-22.934-8.893-32.257-24.693-6.649-11.27-208.466-420.077-209.758-424.894-.59-2.2-1.075-5.88-1.078-8.177-.005-3.591.505-4.598 3.629-7.174 2.003-1.651 6.942-4.011 11-5.256l7.365-2.26v-20.201l-5.281-5.216-5.282-5.216H522.432l-5.216 5.281M575.9 566.762L542.3 639.5l33.923.263c18.658.145 48.897.145 67.198 0l33.276-.263-33.099-72.748c-18.204-40.012-33.323-72.744-33.598-72.738-.275.005-15.62 32.742-34.1 72.748" fill="undefined" fill-rule="evenodd"/></svg>